<?xml version="1.0" encoding="UTF-8"?>
<svg version="1.1" xmlns="http://www.w3.org/2000/svg" width="537" height="240">
<path d="M0 0 C177.21 0 354.42 0 537 0 C537 79.2 537 158.4 537 240 C359.79 240 182.58 240 0 240 C0 160.8 0 81.6 0 0 Z " fill="#1F084F" transform="translate(0,0)"/>
<path d="M0 0 C1.02456299 -0.00021904 1.02456299 -0.00021904 2.06982422 -0.0004425 C4.33157507 0.00025517 6.59324397 0.00804074 8.85498047 0.01586914 C10.42153885 0.01773384 11.98809781 0.0191575 13.55465698 0.02015686 C17.68106695 0.02397796 21.80744181 0.03380479 25.93383789 0.04486084 C30.14322434 0.05508369 34.35261644 0.05965636 38.56201172 0.06469727 C46.82374659 0.07542741 55.08545292 0.09249897 63.34716797 0.11352539 C62.73780793 6.47576834 62.20807911 9.46865474 57.34716797 14.11352539 C51.65507973 17.98055136 46.00521725 17.49911983 39.38623047 17.40649414 C38.24052582 17.4022493 37.09482117 17.39800446 35.91439819 17.39363098 C32.26674582 17.3768818 28.61965246 17.3392353 24.97216797 17.30102539 C22.49431138 17.28597375 20.01644611 17.27228618 17.53857422 17.26000977 C11.47458245 17.22699052 5.41091516 17.17682798 -0.65283203 17.11352539 C-0.64172897 17.74722046 -0.63062592 18.38091553 -0.6191864 19.03381348 C-0.50823216 25.65268809 -0.43301519 32.27129684 -0.37817383 38.89086914 C-0.35309045 41.35842629 -0.31901556 43.82590959 -0.27563477 46.29321289 C-0.21471456 49.84808618 -0.18655916 53.4019738 -0.16455078 56.95727539 C-0.13874435 58.05342163 -0.11293793 59.14956787 -0.08634949 60.27893066 C-0.08385113 67.16212756 -1.06643978 71.84011525 -5.65283203 77.11352539 C-9.92787802 80.7380209 -13.17865417 81.44704747 -18.65283203 82.11352539 C-18.74570158 73.23800836 -18.81668253 64.36265978 -18.86008072 55.48676205 C-18.88091463 51.36486021 -18.90915464 47.24329193 -18.95458984 43.12158203 C-18.99819868 39.14042974 -19.02200068 35.15959736 -19.032341 31.17822456 C-19.03970554 29.66281667 -19.05408683 28.14742537 -19.07575226 26.63215446 C-19.28944562 11.06072553 -19.28944562 11.06072553 -13.02001953 4.37133789 C-8.1818377 0.69837263 -6.07568743 -0.01088833 0 0 Z " fill="#04A660" transform="translate(100.65283203125,60.886474609375)"/>
<path d="M0 0 C0.1161555 8.98859163 0.20484692 17.97692256 0.25906086 26.9661026 C0.28508888 31.1407585 0.32036077 35.31489867 0.37719727 39.48925781 C0.43176232 43.52230352 0.46147159 47.55485506 0.47438622 51.58824158 C0.48358248 53.12238844 0.50154075 54.65651006 0.52865028 56.19044495 C0.79531539 71.9129176 0.79531539 71.9129176 -5 78 C-7.09765625 79.65625 -7.09765625 79.65625 -9.0625 80.5 C-9.71347656 80.7990625 -10.36445312 81.098125 -11.03515625 81.40625 C-13 82 -13 82 -17 82 C-17.1161555 73.01140837 -17.20484692 64.02307744 -17.25906086 55.0338974 C-17.28508888 50.8592415 -17.32036077 46.68510133 -17.37719727 42.51074219 C-17.43176232 38.47769648 -17.46147159 34.44514494 -17.47438622 30.41175842 C-17.48358248 28.87761156 -17.50154075 27.34348994 -17.52865028 25.80955505 C-17.77414639 11.33519863 -17.77414639 11.33519863 -13.41838074 5.42834473 C-9.47913149 1.46142263 -5.62635182 -0.23121994 0 0 Z " fill="#F8AD16" transform="translate(76,84)"/>
<path d="M0 0 C6.001875 -0.0928125 6.001875 -0.0928125 12.125 -0.1875 C13.37555176 -0.21481201 14.62610352 -0.24212402 15.91455078 -0.27026367 C23.50835868 -0.327153 28.01236001 0.40205218 33.875 5.5 C36.66444344 9.14076708 36.70272058 12.78604583 36.484375 17.25 C35.24238754 24.30128365 30.6879161 29.00635678 25 33 C20.18026349 34.65130159 15.02147777 34.0597795 10 34 C10 38.62 10 43.24 10 48 C6.7 48 3.4 48 0 48 C0 32.16 0 16.32 0 0 Z " fill="#F1F0F4" transform="translate(142,119)"/>
<path d="M0 0 C1.16692383 0.00773438 1.16692383 0.00773438 2.35742188 0.015625 C3.15599609 0.03625 3.95457031 0.056875 4.77734375 0.078125 C5.57978516 0.08328125 6.38222656 0.0884375 7.20898438 0.09375 C13.11185972 0.17212843 13.11185972 0.17212843 15.79663086 0.86669922 C18.5846693 1.53736139 20.912447 0.84837192 23.71484375 0.328125 C36.28090341 -0.73938007 36.28090341 -0.73938007 40.40234375 2.578125 C44.16286922 7.05010124 44.96551162 9.7573306 44.91015625 15.625 C44.90371094 16.83027344 44.89726562 18.03554687 44.890625 19.27734375 C44.87386719 20.53160156 44.85710937 21.78585938 44.83984375 23.078125 C44.83082031 24.34785156 44.82179688 25.61757812 44.8125 26.92578125 C44.7889338 30.06008593 44.75603207 33.19401041 44.71484375 36.328125 C41.74484375 36.328125 38.77484375 36.328125 35.71484375 36.328125 C35.70549805 35.58651123 35.69615234 34.84489746 35.68652344 34.08081055 C35.63288624 30.72506786 35.54922582 27.37072938 35.46484375 24.015625 C35.45066406 22.84837891 35.43648438 21.68113281 35.421875 20.47851562 C35.38964844 19.36025391 35.35742188 18.24199219 35.32421875 17.08984375 C35.30327148 16.05819092 35.28232422 15.02653809 35.26074219 13.96362305 C34.94841496 11.21072937 34.94841496 11.21072937 32.82421875 9.5 C30.431199 8.17054458 28.68393225 7.84055798 25.96484375 7.640625 C25.165625 7.57488281 24.36640625 7.50914062 23.54296875 7.44140625 C22.9396875 7.40402344 22.33640625 7.36664063 21.71484375 7.328125 C22.04484375 8.318125 22.37484375 9.308125 22.71484375 10.328125 C22.79800127 12.39311392 22.82220253 14.4607039 22.8125 16.52734375 C22.80927734 17.73583984 22.80605469 18.94433594 22.80273438 20.18945312 C22.79016602 22.0834082 22.79016602 22.0834082 22.77734375 24.015625 C22.77283203 25.28986328 22.76832031 26.56410156 22.76367188 27.87695312 C22.75187248 31.02739064 22.73540972 34.17773449 22.71484375 37.328125 C19.41484375 37.328125 16.11484375 37.328125 12.71484375 37.328125 C12.70026123 36.52068848 12.68567871 35.71325195 12.6706543 34.88134766 C12.59638289 31.2381123 12.4996535 27.59581467 12.40234375 23.953125 C12.37978516 22.68210938 12.35722656 21.41109375 12.33398438 20.1015625 C12.28081055 18.28398437 12.28081055 18.28398437 12.2265625 16.4296875 C12.20037842 15.30900879 12.17419434 14.18833008 12.1472168 13.03369141 C12.00453369 12.14085449 11.86185059 11.24801758 11.71484375 10.328125 C8.05633757 7.55731544 8.05633757 7.55731544 -0.28515625 7.328125 C-0.28515625 16.898125 -0.28515625 26.468125 -0.28515625 36.328125 C-3.25515625 36.328125 -6.22515625 36.328125 -9.28515625 36.328125 C-9.40875568 31.68344861 -9.49949024 27.03972874 -9.55981445 22.39379883 C-9.58495955 20.81355111 -9.61908099 19.23341971 -9.66235352 17.65356445 C-9.72301333 15.38203268 -9.75136303 13.11203756 -9.7734375 10.83984375 C-9.79924393 10.13349289 -9.82505035 9.42714203 -9.85163879 8.6993866 C-9.8527832 6.69799805 -9.8527832 6.69799805 -9.28515625 3.328125 C-6.31929002 0.7734735 -3.87326271 -0.05153096 0 0 Z " fill="#F6F5F8" transform="translate(275.28515625,129.671875)"/>
<path d="M0 0 C5.29805465 1.7339088 7.80032773 4.61187803 11 9 C12 12 12 12 12 22 C3.75 22 -4.5 22 -13 22 C-9.86824314 27.77260299 -9.86824314 27.77260299 -7 29 C-4.28239892 29.07181821 -1.59140612 29.09299506 1.125 29.0625 C2.25615234 29.05573242 2.25615234 29.05573242 3.41015625 29.04882812 C5.27347127 29.03703499 7.13674555 29.01909942 9 29 C9 31.31 9 33.62 9 36 C2.40477686 38.77693606 -4.53696764 39.09389872 -11.3125 36.75 C-16.09190314 34.66864702 -19.15364572 32.45923151 -21.8125 27.875 C-24.02659259 21.97918774 -23.65852951 16.11422632 -21.8125 10.1875 C-16.39615144 0.66219736 -10.30786716 -0.86126742 0 0 Z " fill="#F1F0F4" transform="translate(423,74)"/>
<path d="M0 0 C4.13653031 1.62381562 6.33690235 4.10160964 8.9375 7.625 C10 11 10 11 10 22 C1.75 22 -6.5 22 -15 22 C-11.89889392 28.00933498 -11.89889392 28.00933498 -8.44921875 28.8046875 C-7.53785156 28.82789062 -6.62648438 28.85109375 -5.6875 28.875 C-4.24503906 28.93107422 -4.24503906 28.93107422 -2.7734375 28.98828125 C-1.40058594 28.99408203 -1.40058594 28.99408203 0 29 C1.12535156 29.02126953 1.12535156 29.02126953 2.2734375 29.04296875 C3.84894141 29.05904532 5.42480295 29.03500438 7 29 C7 31.31 7 33.62 7 36 C-0.12946445 39.00187977 -7.05540122 38.95747618 -14.3125 36.4375 C-18.07974498 34.69922791 -21.02604298 33.0450935 -23.22265625 29.45703125 C-24.32388533 25.97626195 -24.49915766 22.55870752 -24.5625 18.9375 C-24.57748535 18.25268555 -24.5924707 17.56787109 -24.60791016 16.86230469 C-24.50404008 11.80077683 -23.1394241 8.90555879 -20 5 C-13.62188479 -0.61881578 -8.38136818 -0.87909464 0 0 Z " fill="#F0EEF3" transform="translate(467,74)"/>
<path d="M0 0 C2.99339127 2.63146991 4.43573089 5.3652709 4.89135742 9.31762695 C4.86779175 10.91223755 4.86779175 10.91223755 4.84375 12.5390625 C4.82924805 14.27446289 4.82924805 14.27446289 4.81445312 16.04492188 C4.78931641 17.24310547 4.76417969 18.44128906 4.73828125 19.67578125 C4.71797852 21.50206055 4.71797852 21.50206055 4.69726562 23.36523438 C4.66197386 26.3650347 4.61266606 29.363931 4.55078125 32.36328125 C-3.53236894 35.07026058 -12.05598018 37.43115116 -20.38671875 34.11328125 C-25.64198983 31.1102692 -25.64198983 31.1102692 -27.44921875 28.36328125 C-28.28188387 23.78791516 -28.09470532 20.44677656 -25.69921875 16.42578125 C-21.50545275 12.58149575 -18.49992839 12.10531533 -12.82421875 12.17578125 C-11.67695313 12.18222656 -10.5296875 12.18867187 -9.34765625 12.1953125 C-6.44921875 12.36328125 -6.44921875 12.36328125 -4.44921875 13.36328125 C-5.71896847 8.94806016 -5.71896847 8.94806016 -8.44921875 5.36328125 C-11.2113247 5.08114681 -11.2113247 5.08114681 -14.32421875 5.17578125 C-15.37351563 5.18222656 -16.4228125 5.18867187 -17.50390625 5.1953125 C-19.98988579 5.33708587 -22.07769461 5.64724135 -24.44921875 6.36328125 C-24.44921875 3.72328125 -24.44921875 1.08328125 -24.44921875 -1.63671875 C-16.62497612 -4.01885203 -7.24054328 -3.90122398 0 0 Z " fill="#F4F3F6" transform="translate(250.44921875,76.63671875)"/>
<path d="M0 0 C4.65232299 2.28386765 7.67035628 5.34071255 10 10 C10 13.63 10 17.26 10 21 C1.75 21 -6.5 21 -15 21 C-11.66666667 26.83333333 -11.66666667 26.83333333 -8 29 C-2.65100508 29.54318537 2.74842433 29.10559488 8 28 C8.1875 31.375 8.1875 31.375 8 35 C2.45997128 38.69335248 -6.19233608 37.72526932 -12.625 36.5 C-17.89418229 34.7436059 -20.24696267 31.81375194 -23.078125 27.26953125 C-25.13323026 22.21014077 -24.49776934 16.34479833 -24 11 C-22.375 7.4375 -22.375 7.4375 -20 5 C-19.21625 4.05125 -18.4325 3.1025 -17.625 2.125 C-12.84907983 -1.68100322 -5.70937115 -0.80131525 0 0 Z " fill="#F6F5F8" transform="translate(354,130)"/>
<path d="M0 0 C2.97 0 5.94 0 9 0 C9 4.62 9 9.24 9 14 C9.99 13.67 10.98 13.34 12 13 C19.11098515 12.30928329 24.30613631 12.49235791 30 17 C32.62417261 21.31182612 33.36464091 24.47513663 33.29296875 29.4921875 C33.2784668 31.29042969 33.2784668 31.29042969 33.26367188 33.125 C33.23853516 34.3625 33.21339844 35.6 33.1875 36.875 C33.16719727 38.76605469 33.16719727 38.76605469 33.14648438 40.6953125 C33.11123435 43.79731454 33.06195504 46.89843534 33 50 C29.7 50 26.4 50 23 50 C22.98018066 49.22285645 22.96036133 48.44571289 22.93994141 47.64501953 C22.84492991 44.13799309 22.73515441 40.63158206 22.625 37.125 C22.5940625 35.90167969 22.563125 34.67835937 22.53125 33.41796875 C22.49257813 32.25136719 22.45390625 31.08476563 22.4140625 29.8828125 C22.3826416 28.80402832 22.3512207 27.72524414 22.31884766 26.61376953 C22.25323678 23.84238346 22.25323678 23.84238346 20 22 C16.37 21.67 12.74 21.34 9 21 C9 30.57 9 40.14 9 50 C6.03 50 3.06 50 0 50 C0 33.5 0 17 0 0 Z " fill="#F5F4F7" transform="translate(303,61)"/>
<path d="M0 0 C0.79535156 -0.02900391 1.59070313 -0.05800781 2.41015625 -0.08789062 C8.23867699 -0.1500998 11.6465879 0.84216155 16.375 4.3125 C18.65044353 7.68557144 18.60806348 10.60777111 18.5703125 14.609375 C18.56386719 15.81464844 18.55742187 17.01992187 18.55078125 18.26171875 C18.53402344 19.51597656 18.51726562 20.77023438 18.5 22.0625 C18.49097656 23.33222656 18.48195312 24.60195312 18.47265625 25.91015625 C18.44909005 29.04446093 18.41618832 32.17838541 18.375 35.3125 C12.81728915 36.88261562 7.88840163 37.62824222 2.125 37.5625 C1.08472656 37.57410156 1.08472656 37.57410156 0.0234375 37.5859375 C-3.6764271 37.57176177 -6.52905216 37.43352196 -9.625 35.3125 C-12.75568388 31.62276543 -13.21076516 28.1554483 -13.0390625 23.46484375 C-12.3448784 19.8563962 -10.53551598 18.40047885 -7.625 16.3125 C-2.79038175 14.00506856 2.10445751 13.85923335 7.375 14.3125 C8.035 14.6425 8.695 14.9725 9.375 15.3125 C8.40723902 11.51702079 8.40723902 11.51702079 6.375 8.3125 C3.67845146 8.23930379 1.00808542 8.22007463 -1.6875 8.25 C-2.82541992 8.25676758 -2.82541992 8.25676758 -3.98632812 8.26367188 C-5.86591871 8.2754932 -7.74546899 8.29342922 -9.625 8.3125 C-9.66741723 5.97955225 -9.66592937 3.64547433 -9.625 1.3125 C-7.48636948 -0.82613052 -2.94528927 0.03478688 0 0 Z " fill="#F5F4F7" transform="translate(196.625,129.6875)"/>
<path d="M0 0 C0 2.64 0 5.28 0 8 C-0.825 7.835 -1.65 7.67 -2.5 7.5 C-9.70519204 6.47068685 -14.62435044 6.49964338 -21 10 C-25.00388586 14.00388586 -25.16580339 18.99428374 -25.3125 24.4375 C-25.27229773 29.40918038 -24.40454778 32.20636104 -21 36 C-17.89914429 38.06723714 -17.27068319 38.24497423 -13.76953125 38.1953125 C-12.56586914 38.18564453 -12.56586914 38.18564453 -11.33789062 38.17578125 C-10.50451172 38.15902344 -9.67113281 38.14226562 -8.8125 38.125 C-7.96751953 38.11597656 -7.12253906 38.10695312 -6.25195312 38.09765625 C-4.16784757 38.07410703 -2.08388783 38.03823647 0 38 C0 40.64 0 43.28 0 46 C-6.66761008 48.88329084 -14.33938643 49.14716672 -21.25 46.875 C-27.30246431 44.18363779 -31.60498318 40.55264121 -34.4375 34.5 C-37.05166121 27.00833455 -37.70627939 17.88659239 -34.4375 10.5 C-27.22384292 -1.36189385 -12.69423273 -5.64188121 0 0 Z " fill="#F1F0F4" transform="translate(215,64)"/>
<path d="M0 0 C3.3 0 6.6 0 10 0 C12.20504111 5.73310687 14.16921894 11.5106827 16.03515625 17.36328125 C16.94693032 20.17497076 16.94693032 20.17497076 19 23 C19.31453125 22.09378906 19.6290625 21.18757813 19.953125 20.25390625 C22.37335728 13.36499208 24.91586349 6.62518213 28 0 C30.97 0 33.94 0 37 0 C36.31754527 4.13990153 35.0190226 7.8053995 33.48828125 11.70703125 C33.23920517 12.34569122 32.99012909 12.9843512 32.73350525 13.6423645 C31.93010881 15.70050684 31.12127613 17.75646657 30.3125 19.8125 C29.48941198 21.91810448 28.66784536 24.02429791 27.84646606 26.13056946 C27.30773297 27.51199377 26.76857213 28.89325136 26.22897339 30.27433777 C23.41214455 37.4890659 20.68458182 44.73514482 18 52 C14.7 52 11.4 52 8 52 C10.83870968 43.35483871 10.83870968 43.35483871 12.25 40.25 C14.01159155 34.96522535 10.61360416 28.91710142 8.75 23.9375 C8.43861084 23.09711182 8.12722168 22.25672363 7.80639648 21.39086914 C5.63543844 15.57582286 3.32952666 9.84229102 0.84765625 4.15234375 C0 2 0 2 0 0 Z " fill="#F5F4F7" transform="translate(221,130)"/>
<path d="M0 0 C1.09344727 -0.03673828 1.09344727 -0.03673828 2.20898438 -0.07421875 C7.39513977 -0.10222679 10.3814969 0.88481231 14.4375 4.375 C17.35938884 8.32842382 17.79721926 11.11549396 17.73046875 15.98828125 C17.7159668 17.8590332 17.7159668 17.8590332 17.70117188 19.76757812 C17.67603516 21.06115234 17.65089844 22.35472656 17.625 23.6875 C17.60469727 25.65686523 17.60469727 25.65686523 17.58398438 27.66601562 C17.54867443 30.90276077 17.4993528 34.13867105 17.4375 37.375 C14.4675 37.375 11.4975 37.375 8.4375 37.375 C8.4281543 36.60309326 8.41880859 35.83118652 8.40917969 35.03588867 C8.35555294 31.54410418 8.27188983 28.05367069 8.1875 24.5625 C8.17332031 23.34755859 8.15914063 22.13261719 8.14453125 20.88085938 C8.11230469 19.71748047 8.08007812 18.55410156 8.046875 17.35546875 C8.02592773 16.28192139 8.00498047 15.20837402 7.98339844 14.10229492 C7.65386733 11.3525959 7.65386733 11.3525959 5.96191406 9.5637207 C2.53428247 7.78339296 2.53428247 7.78339296 -5.5625 7.375 C-5.5625 17.275 -5.5625 27.175 -5.5625 37.375 C-8.8625 37.375 -12.1625 37.375 -15.5625 37.375 C-15.5625 25.825 -15.5625 14.275 -15.5625 2.375 C-9.73219225 0.70919778 -5.82017287 0.01034697 0 0 Z " fill="#F2F1F5" transform="translate(389.5625,129.625)"/>
<path d="M0 0 C1.63001953 0.02707031 1.63001953 0.02707031 3.29296875 0.0546875 C4.54013672 0.08949219 4.54013672 0.08949219 5.8125 0.125 C5.8125 2.765 5.8125 5.405 5.8125 8.125 C4.53375 8.08375 3.255 8.0425 1.9375 8 C-0.20621492 7.88287127 -0.20621492 7.88287127 -2.1875 8.125 C-4.54703094 10.48453094 -4.67891413 11.90395617 -5.1875 15.125 C-2.2175 15.125 0.7525 15.125 3.8125 15.125 C3.8125 17.435 3.8125 19.745 3.8125 22.125 C0.8425 22.125 -2.1275 22.125 -5.1875 22.125 C-5.1875 31.695 -5.1875 41.265 -5.1875 51.125 C-8.4875 51.125 -11.7875 51.125 -15.1875 51.125 C-15.1875 41.555 -15.1875 31.985 -15.1875 22.125 C-16.8375 22.125 -18.4875 22.125 -20.1875 22.125 C-20.1875 19.815 -20.1875 17.505 -20.1875 15.125 C-18.5375 15.125 -16.8875 15.125 -15.1875 15.125 C-15.125625 13.908125 -15.06375 12.69125 -15 11.4375 C-14.45017456 6.93530617 -12.73728448 4.99863506 -9.1875 2.125 C-5.66070901 -0.22619399 -4.15870515 -0.08943452 0 0 Z " fill="#F2F1F5" transform="translate(364.1875,59.875)"/>
<path d="M0 0 C0.73283203 -0.00386719 1.46566406 -0.00773438 2.22070312 -0.01171875 C7.68413018 -0.00168491 7.68413018 -0.00168491 9.9375 1.125 C9.9375 3.435 9.9375 5.745 9.9375 8.125 C4.6575 8.125 -0.6225 8.125 -6.0625 8.125 C-6.7225 9.775 -7.3825 11.425 -8.0625 13.125 C-6.52529297 13.36283203 -6.52529297 13.36283203 -4.95703125 13.60546875 C-3.59617334 13.84009942 -2.23550565 14.0758353 -0.875 14.3125 C-0.20146484 14.41369141 0.47207031 14.51488281 1.16601562 14.61914062 C6.19654021 15.52708897 8.82840598 17.08021673 11.9375 21.125 C12.84236584 24.23348031 12.64609383 26.97632905 11.9375 30.125 C8.84627343 34.39816613 5.92788913 35.76995415 0.9375 37.125 C-2.5703125 37.390625 -2.5703125 37.390625 -6.1875 37.375 C-7.38632812 37.38015625 -8.58515625 37.3853125 -9.8203125 37.390625 C-12.84620687 37.1427204 -14.52575761 36.71519672 -17.0625 35.125 C-17.0625 32.485 -17.0625 29.845 -17.0625 27.125 C-15.928125 27.455 -14.79375 27.785 -13.625 28.125 C-8.75224702 29.34970262 -2.70648091 30.44699045 1.9375 28.125 C1.9375 26.805 1.9375 25.485 1.9375 24.125 C0.98488281 23.89425781 0.03226562 23.66351563 -0.94921875 23.42578125 C-2.20347656 23.09964844 -3.45773437 22.77351563 -4.75 22.4375 C-5.99136719 22.12425781 -7.23273438 21.81101563 -8.51171875 21.48828125 C-12.47743077 19.96569215 -14.41843359 18.42265586 -17.0625 15.125 C-18.17712951 8.74121279 -18.17712951 8.74121279 -15.8125 5.3125 C-10.98813741 0.29516291 -6.80105719 -0.03607988 0 0 Z " fill="#F4F3F6" transform="translate(464.0625,129.875)"/>
<path d="M0 0 C0 2.64 0 5.28 0 8 C-0.825 7.835 -1.65 7.67 -2.5 7.5 C-10.55648041 6.30111918 -10.55648041 6.30111918 -18 9 C-18 9.99 -18 10.98 -18 12 C-17.14277344 12.14695312 -16.28554688 12.29390625 -15.40234375 12.4453125 C-3.67723561 14.74539008 -3.67723561 14.74539008 0.8828125 19.328125 C2.90839224 22.35941216 2.68476767 24.51391005 2 28 C-0.12441484 32.0212138 -1.7835102 34.31912497 -6 36 C-8.05883789 36.24291992 -8.05883789 36.24291992 -10.22265625 36.23046875 C-11.40118164 36.22756836 -11.40118164 36.22756836 -12.60351562 36.22460938 C-13.82071289 36.20624023 -13.82071289 36.20624023 -15.0625 36.1875 C-16.28549805 36.1865332 -16.28549805 36.1865332 -17.53320312 36.18554688 C-21.01400321 36.15980554 -23.66562336 36.11145888 -27 35 C-27 32.36 -27 29.72 -27 27 C-26.236875 27.165 -25.47375 27.33 -24.6875 27.5 C-16.15868343 28.77687201 -16.15868343 28.77687201 -8 27 C-8.33 25.68 -8.66 24.36 -9 23 C-10.04800781 22.75765625 -11.09601563 22.5153125 -12.17578125 22.265625 C-13.5548842 21.9278855 -14.93377999 21.58929932 -16.3125 21.25 C-17.34793945 21.01410156 -17.34793945 21.01410156 -18.40429688 20.7734375 C-21.46421781 20.00476171 -23.6454987 19.33887198 -25.94921875 17.13671875 C-27.76443308 13.44555802 -27.77215307 10.00375667 -27 6 C-20.22232737 -2.84862815 -10.15753125 -2.25722917 0 0 Z " fill="#F3F2F6" transform="translate(292,75)"/>
<path d="M0 0 C2.97 0 5.94 0 9 0 C9 2.97 9 5.94 9 9 C12.3 9 15.6 9 19 9 C19 11.64 19 14.28 19 17 C15.7 17 12.4 17 9 17 C9.14046255 19.95867918 9.28712224 22.91682264 9.4375 25.875 C9.47681641 26.71675781 9.51613281 27.55851562 9.55664062 28.42578125 C9.61948242 29.63427734 9.61948242 29.63427734 9.68359375 30.8671875 C9.72025146 31.61081543 9.75690918 32.35444336 9.79467773 33.12060547 C9.89955865 35.08864312 9.89955865 35.08864312 11 37 C13.35599235 37.46751788 13.35599235 37.46751788 16.0625 37.625 C16.98160156 37.69976562 17.90070313 37.77453125 18.84765625 37.8515625 C19.55792969 37.90054688 20.26820313 37.94953125 21 38 C21.04241723 40.33294775 21.04092937 42.66702567 21 45 C19.21430839 46.78569161 16.66346262 46.21468103 14.25 46.25 C13.20328125 46.27578125 12.1565625 46.3015625 11.078125 46.328125 C6.58726847 45.84940425 4.18556696 44.32444031 1.19921875 40.98828125 C-0.63106097 36.42748651 -0.31481397 32.04828202 -0.1875 27.1875 C-0.17396484 26.20845703 -0.16042969 25.22941406 -0.14648438 24.22070312 C-0.11125312 21.81323375 -0.06199265 19.40690436 0 17 C-1.98 17 -3.96 17 -6 17 C-6 14.36 -6 11.72 -6 9 C-4.02 9 -2.04 9 0 9 C0 6.03 0 3.06 0 0 Z " fill="#F5F4F7" transform="translate(420,121)"/>
<path d="M0 0 C12.21 0 24.42 0 37 0 C35.94259441 7.40183913 35.05699871 10.6746626 29.16015625 15.16015625 C23.82813996 18.0937382 17.9738643 17.42475324 12.0625 17.25 C10.90169922 17.23195313 9.74089844 17.21390625 8.54492188 17.1953125 C5.69625655 17.14842089 2.84801901 17.07668563 0 17 C0 11.39 0 5.78 0 0 Z " fill="#F8AE16" transform="translate(106,84)"/>
<path d="M0 0 C1.7015625 0.02707031 1.7015625 0.02707031 3.4375 0.0546875 C4.283125 0.07789062 5.12875 0.10109375 6 0.125 C6 2.765 6 5.405 6 8.125 C2.37 8.125 -1.26 8.125 -5 8.125 C-5 17.695 -5 27.265 -5 37.125 C-7.97 37.125 -10.94 37.125 -14 37.125 C-14.495 19.8 -14.495 19.8 -15 2.125 C-9.17100333 0.66775083 -5.68484557 -0.11843428 0 0 Z " fill="#F3F2F6" transform="translate(389,73.875)"/>
<path d="M0 0 C1.8975 -0.061875 3.795 -0.12375 5.75 -0.1875 C7.35101563 -0.23970703 7.35101563 -0.23970703 8.984375 -0.29296875 C12.35186365 0.03418364 13.68802517 0.55559701 16 3 C16.4929242 7.36590002 16.49407149 9.86363557 14.75 13.875 C13 16 13 16 9 18 C6.03 18 3.06 18 0 18 C0 12.06 0 6.12 0 0 Z " fill="#220A51" transform="translate(152,127)"/>
<path d="M0 0 C1.09054688 0.02320312 2.18109375 0.04640625 3.3046875 0.0703125 C4.40039062 0.08835937 5.49609375 0.10640625 6.625 0.125 C7.46804687 0.14820312 8.31109375 0.17140625 9.1796875 0.1953125 C9.1796875 3.4953125 9.1796875 6.7953125 9.1796875 10.1953125 C7.40919061 10.24941937 5.63821901 10.28815369 3.8671875 10.3203125 C2.38798828 10.35511719 2.38798828 10.35511719 0.87890625 10.390625 C-1.8203125 10.1953125 -1.8203125 10.1953125 -4.8203125 8.1953125 C-5.1328125 5.1953125 -5.1328125 5.1953125 -4.8203125 2.1953125 C-2.8203125 0.1953125 -2.8203125 0.1953125 0 0 Z " fill="#2C1659" transform="translate(236.8203125,94.8046875)"/>
<path d="M0 0 C1.09054688 0.02320313 2.18109375 0.04640625 3.3046875 0.0703125 C4.40039062 0.08835938 5.49609375 0.10640625 6.625 0.125 C7.46804687 0.14820313 8.31109375 0.17140625 9.1796875 0.1953125 C9.20657966 1.67438142 9.22603371 3.15358733 9.2421875 4.6328125 C9.25378906 5.45652344 9.26539063 6.28023437 9.27734375 7.12890625 C9.1796875 9.1953125 9.1796875 9.1953125 8.1796875 10.1953125 C4.08544552 10.62715952 0.38441121 10.7535991 -3.3828125 9.0078125 C-4.8203125 7.1953125 -4.8203125 7.1953125 -5.1953125 4.6328125 C-4.63427641 0.98607792 -3.65136433 0.25286457 0 0 Z " fill="#2B1458" transform="translate(196.8203125,150.8046875)"/>
<path d="M0 0 C1.90625 0.38671875 1.90625 0.38671875 4.40625 2.07421875 C5.90625 4.38671875 5.90625 4.38671875 5.90625 9.38671875 C0.62625 9.38671875 -4.65375 9.38671875 -10.09375 9.38671875 C-10.09375 4.38671875 -10.09375 4.38671875 -8.59375 2.07421875 C-5.54497526 0.0162958 -3.61641701 -0.19566435 0 0 Z " fill="#362161" transform="translate(420.09375,80.61328125)"/>
<path d="M0 0 C2.875 1.6875 2.875 1.6875 5 4 C5 5.65 5 7.3 5 9 C0.05 9 -4.9 9 -10 9 C-10 4 -10 4 -8.375 1.6875 C-5.27515822 -0.51501916 -3.7345754 -0.6097266 0 0 Z " fill="#2C1559" transform="translate(350,136)"/>
<path d="M0 0 C0.99 0.66 1.98 1.32 3 2 C3 3.98 3 5.96 3 8 C-1.95 8 -6.9 8 -12 8 C-11 3 -11 3 -9.9375 1.1875 C-6.85708253 -0.7004978 -3.51857662 -0.54623064 0 0 Z " fill="#250E54" transform="translate(464,81)"/>
<path d="M0 0 C0.66 0.33 1.32 0.66 2 1 C-0.31 3.31 -2.62 5.62 -5 8 C-5 5 -5 5 -2.5 2.3125 C-1.675 1.549375 -0.85 0.78625 0 0 Z " fill="#D4D0DD" transform="translate(356,61)"/>
</svg>
